<?xml version="1.0" encoding="UTF-8"?>
<svg id="Camada_1" data-name="Camada 1" xmlns="http://www.w3.org/2000/svg" xmlns:xlink="http://www.w3.org/1999/xlink" viewBox="0 0 2000 2000">
  <defs>
    <style>
      .cls-1, .cls-2, .cls-3, .cls-4 {
        fill: none;
      }

      .cls-2 {
        opacity: .7;
        stroke: #3b9bc9;
        stroke-width: 80px;
      }

      .cls-2, .cls-5, .cls-3, .cls-4 {
        stroke-linecap: round;
        stroke-linejoin: round;
      }

      .cls-5 {
        stroke-width: 30px;
      }

      .cls-5, .cls-3, .cls-4 {
        stroke: #325472;
      }

      .cls-5, .cls-6 {
        fill: #badaf6;
      }

      .cls-7 {
        clip-path: url(#clippath-1);
      }

      .cls-8 {
        fill: #3b9bc9;
      }

      .cls-9 {
        fill: #325472;
      }

      .cls-10 {
        fill: #fff;
      }

      .cls-3 {
        stroke-width: 35px;
      }

      .cls-4 {
        stroke-width: 42px;
      }

      .cls-11 {
        clip-path: url(#clippath);
      }
    </style>
    <clipPath id="clippath">
      <path class="cls-1" d="M768.24,1113.46c5.32-.27,59.09-2.04,97.14,41.12,4.72,5.35,30.23,35.25,30.31,80.21.03,21.5-5.77,38.5-10.14,48.6-74.13,0-148.25,0-222.38,0-4.47-10.66-11.2-30.76-9.53-56.27.78-11.85,4.72-45.26,31.43-74.48,32.88-35.96,75.89-38.82,83.17-39.18Z"/>
    </clipPath>
    <clipPath id="clippath-1">
      <path class="cls-1" d="M1250.67,1113.46c5.32-.27,59.09-2.04,97.14,41.12,4.72,5.35,30.23,35.25,30.31,80.21.03,21.5-5.77,38.5-10.14,48.6-74.13,0-148.25,0-222.38,0-4.47-10.66-11.2-30.76-9.53-56.27.78-11.85,4.72-45.26,31.43-74.48,32.88-35.96,75.89-38.82,83.17-39.18Z"/>
    </clipPath>
  </defs>
  <line class="cls-4" x1="183.25" y1="1384.78" x2="1816.75" y2="1384.78"/>
  <path class="cls-4" d="M1021.78,563.08c-39.51-.62-74.85,19.76-89.78,51.56-21.89,46.61,6.15,104.82,51.09,124.38,44.42,19.32,103.4.04,118.96-37.89,8.32-20.28,8.23-55.66-15.21-68.33-19.26-10.41-48.94-2.59-66.27,22.42"/>
  <path class="cls-6" d="M1587,1269.89c1.49,44.45-5.72,83.43-14.88,114.89-371.44-1.07-742.88-2.13-1114.32-3.2-8.39-30.53-14.95-68.43-13.31-111.69,8.88-234.6,254.81-517.96,571.26-517.97,316.27-.01,563.4,283.01,571.26,517.97Z"/>
  <path class="cls-3" d="M961.09,1254.45c1.26,1.6,26.3,32.26,71.08,30.85,40.92-1.29,62.86-28.25,64.9-30.85"/>
  <path class="cls-3" d="M1587,1269.89c.26,50.66-8.54,92.57-16.63,121.31-370.22-.68-740.44-1.37-1110.66-2.05-7.26-27.66-15.48-69.01-15.21-119.26,1.14-216.34,158.2-360.28,181.2-380.72,153.78-136.64,334.79-137.77,390.06-137.25,74.96.7,255.25,16.37,402.17,157.05,27.03,25.88,168.08,160.94,169.09,360.93Z"/>
  <g>
    <circle class="cls-8" cx="1379.85" cy="1269.89" r="101.91"/>
    <circle class="cls-8" cx="641.43" cy="1269.89" r="101.91"/>
  </g>
  <path class="cls-2" d="M1325.61,1020.96c-8.78-5.48-24.46-13.73-45.76-17.09-21.74-3.42-39.51-.21-49.59,2.4"/>
  <path class="cls-2" d="M735.76,1023.73c8.31-6.17,23.27-15.66,44.24-20.71,21.39-5.16,39.37-3.38,49.62-1.6"/>
  <g>
    <g>
      <g class="cls-11">
        <g>
          <circle class="cls-10" cx="774.36" cy="1234.79" r="121.33"/>
          <circle class="cls-9" cx="774.36" cy="1234.79" r="89.28"/>
        </g>
      </g>
      <g class="cls-7">
        <g>
          <circle class="cls-10" cx="1256.79" cy="1234.79" r="121.33"/>
          <circle class="cls-9" cx="1256.79" cy="1234.79" r="89.28"/>
        </g>
      </g>
    </g>
    <circle class="cls-10" cx="1310.97" cy="1169" r="19.58"/>
    <circle class="cls-10" cx="825.32" cy="1169" r="19.58"/>
  </g>
  <path class="cls-5" d="M571.56,1367.26c5.29,29.53-35.41,66.52-99.58,69.48-65.21,3.01-127.62-30.37-131.19-62.09-3.63-32.16,52.6-68.24,118.45-67.57,61.41.62,107.45,32.95,112.33,60.18Z"/>
  <path class="cls-5" d="M1434.43,1367.38c-5.15,28.76,34.49,64.79,97,67.68,63.52,2.93,124.31-29.58,127.79-60.48,3.53-31.33-51.23-66.47-115.38-65.82-59.81.6-104.66,32.09-109.41,58.62Z"/>
</svg>