<?xml version="1.0" encoding="UTF-8"?>
<svg id="Camada_1" data-name="Camada 1" xmlns="http://www.w3.org/2000/svg" viewBox="0 0 2000 2000">
  <defs>
    <style>
      .cls-1, .cls-2, .cls-3, .cls-4 {
        fill: none;
      }

      .cls-5, .cls-2, .cls-3, .cls-4 {
        stroke-linecap: round;
        stroke-linejoin: round;
      }

      .cls-5, .cls-6 {
        fill: #fff;
      }

      .cls-5, .cls-3 {
        stroke-width: 35px;
      }

      .cls-5, .cls-3, .cls-4 {
        stroke: #325472;
      }

      .cls-7 {
        opacity: .3;
      }

      .cls-7, .cls-8 {
        fill: #3b9bc9;
      }

      .cls-2 {
        opacity: .5;
        stroke: #3b9bc9;
        stroke-width: 70px;
      }

      .cls-9 {
        fill: #325472;
      }

      .cls-4 {
        stroke-width: 42px;
      }

      .cls-10 {
        fill: #badaf6;
      }
    </style>
  </defs>
  <path class="cls-10" d="M1251,1380.63c-165.76,1.85-331.52,3.7-497.28,5.56-3.05.03-5.51,2.51-5.52,5.55-.39,70.01-.78,140.02-1.17,210.03,0,1.24-.43,2.45-1.2,3.42-16.95,21.54-33.9,43.08-50.85,64.62-2.88,3.66-.27,9.04,4.39,9.04h591.49c4.53,0,7.18-5.12,4.56-8.82-13.79-19.44-27.57-38.88-41.36-58.32-.69-.97-1.05-2.13-1.03-3.32,1.21-74.03,2.41-148.06,3.62-222.08.05-3.14-2.5-5.71-5.65-5.68Z"/>
  <path class="cls-7" d="M1203.21,1436.23c-.48,84.52-.96,169.05-1.44,253.57,31.7-1.33,63.39-2.65,95.09-3.98-13.2-13.19-47.88-51.39-53.73-108.97-4.98-49.03,13.55-86.44,22.81-102.42-20.91-12.73-41.82-25.47-62.72-38.2Z"/>
  <path class="cls-3" d="M747.02,1330.02v262c0,7.46-2.96,14.62-8.24,19.9l-31.94,31.94c-17.73,17.73-5.17,48.04,19.9,48.04h540.01c25.07,0,37.63-30.31,19.9-48.04l-25.4-25.4c-5.28-5.28-8.24-12.44-8.24-19.9v-268.54c0-15.54-12.6-28.14-28.14-28.14h-449.69c-15.54,0-28.14,12.6-28.14,28.14Z"/>
  <line class="cls-3" x1="996.74" y1="1484.47" x2="996.74" y2="1691.91"/>
  <path class="cls-4" d="M1006.26,308.1c-39.51-.62-74.85,19.76-89.78,51.56-21.89,46.61,6.15,104.82,51.09,124.38,44.42,19.32,103.4.04,118.96-37.89,8.32-20.28,8.23-55.66-15.21-68.33-19.26-10.41-48.94-2.59-66.27,22.42"/>
  <ellipse class="cls-10" cx="1000.23" cy="1014.91" rx="571.26" ry="517.97"/>
  <path class="cls-3" d="M945.57,929.95c1.26,1.6,26.3,32.26,71.08,30.85,40.92-1.29,62.86-28.25,64.9-30.85"/>
  <path class="cls-7" d="M1543.41,884.52c9.51,31.8,42.45,153.75-2.28,289.8-88.56,269.41-397.65,338.7-413.52,342,260.18-68.98,425.52-318.84,391.5-567-37.67-274.76-310.59-480.78-606.6-433.47,45.72-6.94,253.87-33.49,439.2,104.07,39.06,29,145.84,111.28,191.7,264.6Z"/>
  <ellipse class="cls-3" cx="1000.23" cy="1014.91" rx="571.26" ry="517.97"/>
  <g>
    <circle class="cls-8" cx="1382.77" cy="982.34" r="101.91"/>
    <circle class="cls-8" cx="644.35" cy="982.34" r="101.91"/>
  </g>
  <path class="cls-2" d="M1251.16,701.34c-8.78-5.48-24.46-13.73-45.76-17.09-21.74-3.42-39.51-.21-49.59,2.4"/>
  <path class="cls-2" d="M749.29,704.11c8.31-6.17,23.27-15.66,44.24-20.71,21.39-5.16,39.37-3.38,49.62-1.6"/>
  <g>
    <g>
      <circle class="cls-6" cx="1241.62" cy="907.01" r="121.33"/>
      <circle class="cls-9" cx="1241.62" cy="907.01" r="89.28"/>
    </g>
    <path class="cls-1" d="M1247.73,1028.33c-5.32.27-59.09,2.04-97.14-41.12-4.72-5.35-30.23-35.25-30.31-80.21-.03-21.5,5.77-38.5,10.14-48.6h222.38c4.47,10.66,11.2,30.76,9.53,56.27-.78,11.85-4.72,45.26-31.43,74.48-32.88,35.96-75.89,38.82-83.17,39.18Z"/>
    <g>
      <circle class="cls-6" cx="759.18" cy="907.01" r="121.33"/>
      <circle class="cls-9" cx="759.18" cy="907.01" r="89.28"/>
    </g>
    <path class="cls-1" d="M765.3,1028.33c-5.32.27-59.09,2.04-97.14-41.12-4.72-5.35-30.23-35.25-30.31-80.21-.03-21.5,5.77-38.5,10.14-48.6h222.38c4.47,10.66,11.2,30.76,9.53,56.27-.78,11.85-4.72,45.26-31.43,74.48-32.88,35.96-75.89,38.82-83.17,39.18Z"/>
  </g>
  <circle class="cls-6" cx="1295.45" cy="972.79" r="19.58"/>
  <circle class="cls-6" cx="809.8" cy="972.79" r="19.58"/>
  <rect class="cls-5" x="425.15" y="1057.82" width="1162.05" height="391.7" rx="60.39" ry="60.39"/>
  <g>
    <path class="cls-10" d="M436.23,1207.88c3.19.15,60.34,3.74,85.41,49.21,23.63,42.87,2.65,93.79-27.64,119.58-6.48,5.52-22.16,17.36-45.41,21.71-52.74,9.88-97.87-27.47-105.47-34.31-53.9-48.47-29.05-188.94,65.78-342.89,1.44,53.28-.07,79.38-2.82,91.38-.67,2.92-2.99,11.88,1.51,17.44,3.96,4.89,9.65,2.79,12.5,6.85,4.5,6.42-5.92,17.13-7.4,29.36-1.1,9.09,2.3,22.69,23.55,41.68Z"/>
    <path class="cls-3" d="M426.23,985.42c-18.69,17.58-43.7,44.77-64.7,82.62-59.97,108.07-69.46,270.91,6.05,317.62,34.83,21.55,92.25,21.18,126.42-9.01,26.05-23.01,35.58-60.71,27.03-93.82-9.85-38.14-43.04-67.64-84.8-74.97-6.51-20.38-12.43-44.19-16.15-71.03-8.58-61.94-1.9-114.67,6.15-151.42Z"/>
  </g>
  <g>
    <path class="cls-10" d="M1581.09,1209.55c-3.17.41-59.81,8.6-80.86,55.94-19.85,44.63,5.45,93.68,37.86,116.93,6.94,4.98,23.58,15.5,47.13,17.96,53.41,5.58,95.16-35.29,102.14-42.71,49.53-52.65,12.64-190.62-95.14-336.38,3.17,53.21,6.92,79.1,10.7,90.83.92,2.86,4.01,11.59,0,17.5-3.52,5.19-9.38,3.56-11.86,7.84-3.93,6.76,7.38,16.59,9.9,28.66,1.88,8.97-.33,22.8-19.87,43.43Z"/>
    <path class="cls-3" d="M1571.86,987.06c20.14,16.01,47.41,41.09,71.61,77.11,69.09,102.85,92.6,264.35,21.38,317-32.85,24.28-90.1,28.56-126.75,1.24-27.94-20.83-40.7-57.62-35.03-91.31,6.52-38.8,37.05-70.88,78.03-81.55,4.72-20.84,8.57-45.04,9.96-72.09,3.21-62.42-8-114.43-19.2-150.4Z"/>
  </g>
</svg>