<?xml version="1.0" encoding="UTF-8"?>
<svg id="Camada_1" data-name="Camada 1" xmlns="http://www.w3.org/2000/svg" viewBox="0 0 2000 2000">
  <defs>
    <style>
      .cls-1 {
        fill: #b2ca6b;
      }

      .cls-2 {
        fill: #3a536f;
      }

      .cls-3 {
        fill: #fff;
      }

      .cls-4 {
        fill: #f6ecd7;
      }

      .cls-4, .cls-5 {
        stroke-width: 39px;
      }

      .cls-4, .cls-5, .cls-6 {
        stroke: #3a536f;
        stroke-linecap: round;
        stroke-linejoin: round;
      }

      .cls-5, .cls-6 {
        fill: none;
      }

      .cls-6 {
        stroke-width: 21px;
      }
    </style>
  </defs>
  <path class="cls-1" d="M1449.07,1436.1c-56.38-231.65-33.15-418.57,58.43-464.3,38.48-19.21,99.77-18.85,139.23,11.23,18.57,14.16,45.39,44.87,50.69,194.3,2.26,63.78.74,152.89-16.43,259.78l-68.16-9.48c-12.31,11.04-24.61,22.07-36.92,33.11-18.01-15.86-36.03-31.71-54.04-47.57-15.47,33.75-41.24,49.34-56.81,43.53-2.28-.85-10.7-4.54-16-20.59Z"/>
  <path class="cls-5" d="M1424.8,1218.52c-3.22-126.99,14.74-173.42,37.72-206.74,12.36-17.93,46.07-66.8,97.87-69.08,56.22-2.47,96.99,51.54,104.22,61.11,31.1,41.19,39.32,89.65,27.93,280.15-2.6,43.48-6.26,95.01-11.55,153.14-1.39,15.24-19.07,22.94-31.16,13.57-8.17-6.33-16.35-12.67-24.52-19-9.38-7.27-23.04-4.47-28.8,5.9-1.7,3.05-3.39,6.11-5.09,9.16-6.73,12.11-23.64,13.45-32.19,2.53-7.49-9.56-14.98-19.12-22.47-28.69-7.28-9.29-21.1-9.97-29.25-1.44-8.48,8.86-16.96,17.73-25.43,26.59-10.84,11.34-29.97,5.76-33.01-9.63-17.45-88.45-22.88-162.98-24.27-217.58Z"/>
  <path class="cls-1" d="M1337.18,1413.62c-169.5,1.89-339.01,3.79-508.51,5.68-.4,72.48-.8,144.96-1.21,217.43-19.72,25.05-39.43,50.11-59.15,75.16h613.8c-16.22-22.88-32.45-45.75-48.67-68.63,1.25-76.55,2.49-153.1,3.74-229.65Z"/>
  <path class="cls-5" d="M827.46,1358.31v268.74c0,6.2-2.46,12.15-6.85,16.53l-41.46,41.46c-14.73,14.73-4.3,39.91,16.53,39.91h563c20.83,0,31.26-25.18,16.53-39.91l-34.93-34.93c-4.38-4.38-6.85-10.33-6.85-16.53v-275.28c0-12.91-10.47-23.38-23.38-23.38h-459.22c-12.91,0-23.38,10.47-23.38,23.38Z"/>
  <line class="cls-5" x1="1077.18" y1="1517.52" x2="1077.18" y2="1724.96"/>
  <ellipse class="cls-1" cx="1075.21" cy="994.4" rx="571.26" ry="535.55"/>
  <ellipse class="cls-5" cx="1075.21" cy="994.4" rx="571.26" ry="535.55"/>
  <rect class="cls-4" x="618.61" y="1066.86" width="251.33" height="321.24"/>
  <path class="cls-1" d="M490.41,931.27c-35.74,23.9-100.38,74.37-143.22,160.82-20.67,41.71-72.64,146.57-27.59,251.5,23.41,54.53,82.68,131.57,154.49,128.41,57.27-2.52,98.82-54.99,130.09-94.47,32.89-41.53,49.71-82.62,58.65-110.8-8.39-10.87-16.77-21.74-25.16-32.61,12.58-20.96,25.16-41.92,37.74-62.89-13.29-4.85-40.98-12.98-75.98-8.43-37.18,4.83-62.84,21.4-74.22,29.8-11.6-87.11-23.2-174.23-34.8-261.34Z"/>
  <path class="cls-5" d="M507.51,920.49c-33.62,23.02-88.82,67.27-131.55,140.65-26.33,45.22-88.88,166.22-45.26,283.6,30.93,83.24,112.63,148.27,191.51,117.59,77.53-30.16,105.22-134.47,107.94-145.26,11.03-16.14,22.05-32.28,33.08-48.42-8.12-10.76-16.25-21.52-24.37-32.28,12.19-20.75,24.37-41.5,36.56-62.25-7.72-4.45-48.42-26.9-95.75-11.53-25.32,8.22-41.69,23.74-49.76,32.69-13.22-32.24-29.08-81.48-33.06-143.34-3.49-54.26,3.36-99.63,10.68-131.44Z"/>
  <circle class="cls-3" cx="825.87" cy="921.51" r="97.59"/>
  <circle class="cls-2" cx="825.87" cy="921.51" r="61.66"/>
  <circle class="cls-3" cx="1316.01" cy="921.51" r="97.59"/>
  <circle class="cls-2" cx="1316.01" cy="921.51" r="61.66"/>
  <path class="cls-5" d="M1007.23,933.16c10.51,34.74,43.89,55.56,75.29,50.19,24.6-4.21,45.12-24.01,52.12-50.19"/>
  <path class="cls-6" d="M754.15,1156.75c6.21,8.03,12.41,16.06,18.62,24.08,11.89-16.7,23.78-33.4,35.67-50.1"/>
  <path class="cls-6" d="M811.01,1250.03h-106.39"/>
  <path class="cls-6" d="M811.01,1292.48h-159.17"/>
  <path class="cls-5" d="M1084.29,275.05c-39.51-.62-74.85,19.76-89.78,51.56-21.89,46.61,6.15,104.82,51.09,124.38,44.42,19.32,103.4.04,118.96-37.89,8.32-20.28,8.23-55.66-15.21-68.33-19.26-10.41-48.94-2.59-66.27,22.42"/>
</svg>