<?xml version="1.0" encoding="UTF-8"?>
<svg id="Camada_1" data-name="Camada 1" xmlns="http://www.w3.org/2000/svg" viewBox="0 0 2000 2000">
  <defs>
    <style>
      .cls-1 {
        stroke-width: 30px;
      }

      .cls-1, .cls-2, .cls-3, .cls-4, .cls-5, .cls-6, .cls-7, .cls-8, .cls-9, .cls-10, .cls-11, .cls-12 {
        stroke-linecap: round;
        stroke-linejoin: round;
      }

      .cls-1, .cls-2, .cls-4, .cls-7, .cls-8, .cls-9, .cls-10, .cls-11 {
        stroke: #325472;
      }

      .cls-1, .cls-2, .cls-13 {
        fill: #fff;
      }

      .cls-2, .cls-9 {
        stroke-width: 20px;
      }

      .cls-3, .cls-14, .cls-15 {
        opacity: .88;
      }

      .cls-3, .cls-5, .cls-6, .cls-8, .cls-9, .cls-10, .cls-11, .cls-12 {
        fill: none;
      }

      .cls-3, .cls-6 {
        stroke: #ac4530;
      }

      .cls-3, .cls-6, .cls-8, .cls-12 {
        stroke-width: 21px;
      }

      .cls-14 {
        fill: #ac4530;
      }

      .cls-4 {
        fill: #f3ffff;
        stroke-width: 25px;
      }

      .cls-16 {
        opacity: .78;
      }

      .cls-16, .cls-7 {
        fill: #f7d18e;
      }

      .cls-17 {
        fill: #d7e3e4;
      }

      .cls-18 {
        opacity: .3;
      }

      .cls-18, .cls-19 {
        fill: #3b9bc9;
      }

      .cls-5 {
        opacity: .5;
        stroke: #3b9bc9;
        stroke-width: 70px;
      }

      .cls-20 {
        fill: #325472;
      }

      .cls-7 {
        stroke-width: 23px;
      }

      .cls-10 {
        stroke-width: 35px;
      }

      .cls-11 {
        stroke-width: 42px;
      }

      .cls-21 {
        fill: #badaf6;
      }

      .cls-12 {
        stroke: #b14e3b;
      }

      .cls-22 {
        fill: #dccdbf;
      }
    </style>
  </defs>
  <path class="cls-14" d="M1076.43,280.58h621.06c78.08,0,141.48,63.39,141.48,141.48v103.68h-904.02v-103.68c0-78.08,63.39-141.48,141.48-141.48Z"/>
  <path class="cls-17" d="M1086.04,514.94h605.98c78.08,0,141.48,63.39,141.48,141.48v484.92h-888.94v-484.92c0-78.08,63.39-141.48,141.48-141.48Z" transform="translate(2778.06 1656.27) rotate(180)"/>
  <rect class="cls-10" x="943.84" y="280.58" width="886.24" height="862.79" rx="138.89" ry="138.89"/>
  <line class="cls-10" x1="944.56" y1="514.94" x2="1816.63" y2="514.94"/>
  <rect class="cls-8" x="1068.7" y="581.13" width="114" height="114"/>
  <g class="cls-15">
    <path class="cls-6" d="M1083.16,595.59c28.36,28.36,56.72,56.72,85.08,85.08"/>
    <path class="cls-6" d="M1168.24,595.59c-28.36,28.36-56.72,56.72-85.08,85.08"/>
  </g>
  <rect class="cls-8" x="1237.05" y="581.13" width="114" height="114"/>
  <g class="cls-15">
    <path class="cls-6" d="M1251.51,595.59c28.36,28.36,56.72,56.72,85.08,85.08"/>
    <path class="cls-6" d="M1336.59,595.59c-28.36,28.36-56.72,56.72-85.08,85.08"/>
  </g>
  <rect class="cls-8" x="1405.4" y="581.13" width="114" height="114"/>
  <g class="cls-15">
    <path class="cls-6" d="M1419.86,595.59c28.36,28.36,56.72,56.72,85.08,85.08"/>
    <path class="cls-6" d="M1504.94,595.59c-28.36,28.36-56.72,56.72-85.08,85.08"/>
  </g>
  <rect class="cls-8" x="1573.76" y="581.13" width="114" height="114"/>
  <g class="cls-15">
    <path class="cls-6" d="M1588.22,595.59c28.36,28.36,56.72,56.72,85.08,85.08"/>
    <path class="cls-6" d="M1673.29,595.59c-28.36,28.36-56.72,56.72-85.08,85.08"/>
  </g>
  <g>
    <rect class="cls-8" x="1068.7" y="754.78" width="114" height="114"/>
    <g>
      <path class="cls-12" d="M1083.16,769.24c28.36,28.36,56.72,56.72,85.08,85.08"/>
      <path class="cls-12" d="M1168.24,769.24c-28.36,28.36-56.72,56.72-85.08,85.08"/>
    </g>
  </g>
  <rect class="cls-8" x="1237.05" y="754.78" width="114" height="114"/>
  <rect class="cls-8" x="1405.4" y="754.78" width="114" height="114"/>
  <g class="cls-15">
    <path class="cls-6" d="M1419.86,769.24c28.36,28.36,56.72,56.72,85.08,85.08"/>
    <path class="cls-6" d="M1504.94,769.24c-28.36,28.36-56.72,56.72-85.08,85.08"/>
  </g>
  <rect class="cls-8" x="1573.76" y="754.78" width="114" height="114"/>
  <g>
    <rect class="cls-8" x="1068.7" y="928.42" width="114" height="114"/>
    <g>
      <path class="cls-12" d="M1083.16,942.88c28.36,28.36,56.72,56.72,85.08,85.08"/>
      <path class="cls-12" d="M1168.24,942.88c-28.36,28.36-56.72,56.72-85.08,85.08"/>
    </g>
  </g>
  <rect class="cls-8" x="1237.05" y="928.42" width="114" height="114"/>
  <rect class="cls-8" x="1405.4" y="928.42" width="114" height="114"/>
  <rect class="cls-8" x="1573.76" y="928.42" width="114" height="114"/>
  <circle class="cls-3" cx="1462.4" cy="985.42" r="66.44"/>
  <g>
    <ellipse class="cls-22" cx="1390.46" cy="374.49" rx="61.2" ry="57.82"/>
    <ellipse class="cls-22" cx="1187.99" cy="374.49" rx="61.2" ry="57.82"/>
    <ellipse class="cls-22" cx="1585.93" cy="374.49" rx="61.2" ry="57.82"/>
  </g>
  <g>
    <path class="cls-7" d="M1187.99,241.96h0c16.45,0,29.79,14.27,29.79,31.87v85.29c0,5.04-1.03,10.05-3.25,14.49-5.38,10.75-15.42,17.76-26.54,17.76s-21.16-7.01-26.54-17.76c-2.22-4.44-3.25-9.45-3.25-14.49v-85.29c0-17.6,13.34-31.87,29.79-31.87Z"/>
    <path class="cls-7" d="M1390.46,241.96h0c16.45,0,29.79,14.27,29.79,31.87v85.29c0,5.04-1.03,10.05-3.25,14.49-5.38,10.75-15.42,17.76-26.54,17.76s-21.16-7.01-26.54-17.76c-2.22-4.44-3.25-9.45-3.25-14.49v-85.29c0-17.6,13.34-31.87,29.79-31.87Z"/>
    <path class="cls-7" d="M1585.93,241.96h0c16.45,0,29.79,14.27,29.79,31.87v85.29c0,5.04-1.03,10.05-3.25,14.49-5.38,10.75-15.42,17.76-26.54,17.76s-21.16-7.01-26.54-17.76c-2.22-4.44-3.25-9.45-3.25-14.49v-85.29c0-17.6,13.34-31.87,29.79-31.87Z"/>
  </g>
  <path class="cls-21" d="M1075.9,1234.98c-15.87,72.35-31.74,144.7-47.6,217.05,12.91,7.77,28.34,20.14,35.83,39.4,10.34,26.58-3.11,44.04,4.62,57.98,15.28,27.55,103.48,23.52,150.68-4.42,157.62-93.3,80.62-585-1.84-593.31-31.69-3.19-76.53,63.77-141.68,283.3Z"/>
  <path class="cls-10" d="M1266.44,966.85c35.69,140.07,37.35,255.22,33.03,330.67-5.99,104.45-12.63,197.4-80.05,247.47-33.78,25.09-86.92,32.06-129.34,25.98-23.28-3.33-40.71-23.03-41.09-46.54-.07-4.12-.13-8.24-.2-12.36-.31-18.97-11.45-36.43-28.97-43.68-2.7-1.12-5.01-2.72-6.64-4.99-7.52-10.5.74-34.13,24.74-57.65,5.51-5.4,9.67-12.01,12.1-19.33,10.88-32.79,24.54-74.03,25.02-127.63.33-37.3-1.68-86.51-10.8-144.31"/>
  <path class="cls-21" d="M963.34,1426.8c-22.52-120.68-206.95,4.56-267.22,5.89-1.64.04-2.96,2.66-2.97,5.89-.17,60.1-3.12,111.77-.63,222.83.42,18.9.59,46.25-.88,79.61,97.7.72,195.4,1.45,293.11,2.17,2.44,0,3.86-5.43,2.45-9.35-7.41-20.62-14.82-41.25-22.23-61.87,0,0-.2-1.13-.55-3.52-7.17-48.06,9.03-187.42-1.09-241.65Z"/>
  <path class="cls-10" d="M688.05,1743.19h270.01c11.36,0,21.65-6.88,26-17.37,4.06-9.79,2.76-21.8-6.1-30.67l-25.4-25.4c-5.28-5.28-8.24-12.44-8.24-19.9v-268.54c0-15.54-12.6-28.14-28.14-28.14-74.88,4.97-149.75,9.95-224.63,14.92l-3.48,375.11Z"/>
  <path class="cls-21" d="M769.19,1452.66c-1.02-115.95-204.15-34.18-263.61-44.13-1.62-.27-3.37,1.91-3.95,4.91-10.68,55.63-22.61,102.93-39.59,206.26-2.89,17.58-7.51,42.95-14.79,73.57,95.88,18.8,191.76,37.6,287.64,56.41,2.39.45,4.74-4.31,4.04-8.21-3.67-20.48-7.34-40.95-11.02-61.43,0,0,0-1.08.07-3.37,1.36-45.84,41.66-171.91,41.2-224Z"/>
  <path class="cls-10" d="M440.92,1707.44c88.44,16.7,176.88,33.4,265.32,50.11,11.16,2.11,22.55-2.74,28.77-12.25,5.8-8.87,6.76-20.91-.3-31.27l-20.25-29.68c-4.21-6.17-5.79-13.75-4.41-21.08l49.83-263.88c2.88-15.27-7.16-29.99-22.43-32.88-74.5-9.01-149-18.02-223.5-27.03-24.34,122.65-48.69,245.3-73.03,367.95Z"/>
  <path class="cls-18" d="M1276.13,1217.43c4.86,82.34,10.99,186.21-50.4,261-15.72,19.16-53.91,58.37-131.4,77.4,19.59,2.69,88.27,9.72,140.4-34.2,44.7-37.66,51.73-91.32,59.16-148.11,5.95-45.46,9.94-128.75-26.76-231.69,3.22,17.86,7.13,43.94,9,75.6Z"/>
  <path class="cls-11" d="M758.48,365.6c-37.48-1.26-70.67,18.43-84.31,49.82-20,46.01,7.55,104.38,50.5,124.56,42.44,19.95,98.08,1.74,112.21-35.74,7.56-20.04,6.9-55.24-15.55-68.23-18.44-10.67-46.46-3.38-62.49,21.22"/>
  <g>
    <path class="cls-4" d="M1289.76,1483.93c18.85-7.1,40.9-16.93,64.34-30.63,14.68-8.58,27.68-17.38,39.06-25.89,10.69-8,13.44-22.25,6.26-33.11-7.5-11.34-16.67-23.6-27.86-36.13-18.52-20.73-37.25-36.24-52.87-47.47-99.6-13.26-199.2-26.51-298.8-39.77-9.59,58.53-19.18,117.07-28.77,175.6l298.64,37.41Z"/>
    <path class="cls-16" d="M1283.4,1467.92c-6.58-11.65-13.15-23.31-19.73-34.96,14.38-11.83,28.77-23.65,43.15-35.48-9.28-15.19-18.55-30.38-27.83-45.57,9.04-9.39,18.08-18.78,27.12-28.16-117.49-14.87-234.98-29.75-352.46-44.62-3.02,48.8-6.03,97.61-9.05,146.41,112.93,14.13,225.86,28.26,338.79,42.39Z"/>
    <path class="cls-9" d="M1288.21,1478.37c-7.47-14.24-14.94-28.49-22.41-42.73,13.68-12.72,27.35-25.44,41.03-38.16-9.28-15.19-18.55-30.38-27.83-45.57,13.23-13.74,26.46-27.48,39.69-41.21"/>
    <path class="cls-2" d="M1260,1439.36c-85.74-11.46-171.49-22.92-257.23-34.38"/>
    <path class="cls-20" d="M1343.27,1454.89c2.02-15.99,4.64-32.85,8.01-50.46,3.72-19.44,7.95-37.71,12.45-54.73,6.42,7.12,15.09,18.49,21.46,34.31,4.52,11.21,6.57,21.4,7.53,29.27-2,3.43-4.38,7.11-7.21,10.92-.44.59-5.97,8-11.41,13.24-10.27,9.88-23.34,15.03-30.83,17.45Z"/>
    <path class="cls-2" d="M1284.9,1349.16c-87.44-11.69-174.89-23.37-262.33-35.06"/>
  </g>
  <ellipse class="cls-21" cx="739.2" cy="1071.9" rx="550.83" ry="517.97"/>
  <circle class="cls-19" cx="1138.17" cy="1040.62" r="99"/>
  <circle class="cls-19" cx="406.02" cy="1040.62" r="99"/>
  <g>
    <circle class="cls-13" cx="527.35" cy="941.62" r="121.33"/>
    <circle class="cls-20" cx="549.09" cy="919.25" r="83.38"/>
    <circle class="cls-13" cx="505.73" cy="863.97" r="23.21"/>
  </g>
  <g>
    <circle class="cls-13" cx="1014.16" cy="941.62" r="121.33"/>
    <circle class="cls-20" cx="1036.86" cy="919.25" r="83.38"/>
    <circle class="cls-13" cx="990.95" cy="863.97" r="23.21"/>
  </g>
  <path class="cls-18" d="M1274.85,957.31c7.93,32.23,34.83,155.65-16.54,289.34-101.71,264.72-413.84,318.72-429.86,321.23,263.26-56.09,440.7-297.51,418.93-547.04-24.1-276.28-286.55-495.49-584.53-462.8,46.01-4.68,255.21-20.96,433.54,125.57,37.59,30.88,140.19,118.32,178.44,273.71Z"/>
  <path class="cls-10" d="M716.63,941.7c12.06,31.7,43.23,51.34,75.09,48.25,27.25-2.64,51.01-21.5,60.88-48.25"/>
  <ellipse class="cls-10" cx="739.2" cy="1071.9" rx="550.83" ry="517.97"/>
  <g>
    <path class="cls-1" d="M316.66,1460.68c28.96-140.82,57.91-281.63,86.87-422.45,103.36,15.39,206.73,30.79,310.09,46.18-25.27,143.02-50.54,286.04-75.82,429.06-107.05-17.6-214.1-35.2-321.14-52.79Z"/>
    <path class="cls-1" d="M334.82,1436.76c45.51-136.37,91.02-272.74,136.53-409.11,100.8,27.59,201.59,55.17,302.39,82.76-42.11,139-84.23,277.99-126.34,416.99-104.19-30.21-208.39-60.43-312.58-90.64Z"/>
  </g>
  <path class="cls-21" d="M406.96,1187.4c108.36,21.81,192.69-18.77,217.99-32.18,5.72,5.94,15.14,14.14,28.58,19.01,12.11,4.39,18.67,2.89,30.06,6.39,0,0,17.86,5.49,34.6,23.49,25.28,27.18,19.63,105.92-15.48,154.08-54.82,75.21-167.51,68.4-233.39,64.42-53.62-3.24-223.94-13.53-275.57-129.09-12.13-27.16-24.89-76.2-11.2-130.5,9.94-39.42,29.98-66.45,42.14-80.5,20.06,22.28,81.33,84.56,182.27,104.88Z"/>
  <path class="cls-10" d="M192.35,1109.64c-16.35,31.18-44.92,97.26-23.88,163.28,39.7,124.54,221.96,142.14,284.62,148.19,58.09,5.61,183.35,17.31,250.44-63.1,27.28-32.7,38.09-86.62,35.22-130.56-1.57-24.11-19.76-43.48-42.96-45.67-4.07-.38-8.13-.77-12.2-1.15-18.72-1.77-35.15-14.52-41.03-33.03-.9-2.85-2.32-5.35-4.44-7.18-9.83-8.51-33.78-1.86-58.79,20.94-9.68,8.82-17.16,9.24-19.99,10.92-19.08,11.3-65.18,18.28-179.43,3.5"/>
  <g>
    <path class="cls-5" d="M583.01,751.22c-9.6-3-26.38-6.91-47.25-4.82-21.29,2.12-37.22,9.52-46.06,14.45"/>
    <path class="cls-5" d="M1019.04,751.22c-9.6-3-26.38-6.91-47.25-4.82-21.29,2.12-37.22,9.52-46.06,14.45"/>
  </g>
</svg>