<?xml version="1.0" encoding="UTF-8"?>
<svg id="Camada_1" data-name="Camada 1" xmlns="http://www.w3.org/2000/svg" viewBox="0 0 2000 2000">
  <defs>
    <style>
      .cls-1, .cls-2, .cls-3 {
        fill: #f7d18e;
      }

      .cls-4, .cls-5 {
        fill: #e9a353;
      }

      .cls-6 {
        fill: #325472;
      }

      .cls-7 {
        fill: #fff;
      }

      .cls-2, .cls-3, .cls-8, .cls-9, .cls-10 {
        stroke: #325472;
      }

      .cls-2, .cls-3, .cls-8, .cls-9, .cls-10, .cls-11 {
        stroke-linecap: round;
        stroke-linejoin: round;
      }

      .cls-2, .cls-8 {
        stroke-width: 22px;
      }

      .cls-3 {
        stroke-width: 27px;
      }

      .cls-8, .cls-9, .cls-10, .cls-11 {
        fill: none;
      }

      .cls-9 {
        stroke-width: 35px;
      }

      .cls-10 {
        stroke-width: 42px;
      }

      .cls-11 {
        opacity: .7;
        stroke: #e9a353;
        stroke-width: 80px;
      }

      .cls-5 {
        opacity: .5;
      }
    </style>
  </defs>
  <path class="cls-3" d="M1561.3,640.23c-2.23-11.46-6.77-29.06-17-48.3-14.04-26.42-24.38-28.81-32.22-47.37-10.48-24.81-8.66-59.96,10.79-87.08,25.02-34.89,65.78-37.78,74.56-38.15,5.54-.23,53.87-1.45,82.65,37.38,23.17,31.26,21.54,72.11,8.94,97.41-6.72,13.5-13.42,16.25-24.4,37.31-10.06,19.32-14.79,36.91-17.22,48.79h-86.1Z"/>
  <path class="cls-3" d="M1575.42,719.03h53.01"/>
  <path class="cls-2" d="M1560.35,679.63h83.15"/>
  <path class="cls-3" d="M1737.19,356.89c-10.3,13.76-20.6,27.53-30.9,41.29"/>
  <path class="cls-3" d="M1660.1,318.34c-3.03,16.92-6.06,33.84-9.08,50.76"/>
  <path class="cls-3" d="M1782.03,423.21c-14.53,9.19-29.05,18.38-43.58,27.58"/>
  <g>
    <path class="cls-1" d="M492.42,1214.7c-3.56,73.98-7.13,147.97-10.69,221.95-14.49,4.13-32.62,12.05-44.87,28.68-16.92,22.96-8.49,43.33-19.59,54.76-21.94,22.61-106.03-4.3-144.31-43.59-127.81-131.2,74.84-585.77,156.61-572.27,31.42,5.19,57.24,81.53,62.84,310.46Z"/>
    <path class="cls-9" d="M378.46,906.14c-71.01,125.9-102.66,236.63-118.18,310.59-21.48,102.39-39.32,193.85,12.69,259.78,26.06,33.03,75.54,53.63,118.08,58.84,23.34,2.86,45.31-11.61,51.81-34.21,1.14-3.96,2.28-7.92,3.42-11.88,5.25-18.23,20.56-32.18,39.37-34.61,2.89-.37,5.55-1.32,7.71-3.08,10-8.18,8.2-33.14-8.83-62.11-3.91-6.65-6.2-14.12-6.63-21.82-1.95-34.5-4.37-77.87,9.15-129.73,9.41-36.1,24.2-83.07,48.09-136.49"/>
  </g>
  <g>
    <path class="cls-1" d="M1451.76,1026.75c45.43-58.5,90.86-117,136.29-175.5,14.23,4.95,33.62,8.88,53.2,2.31,27.04-9.07,31.85-30.58,47.5-33.56,30.95-5.89,84.31,64.45,93.05,118.6,29.2,180.82-397.86,436.38-457.02,378.35-22.74-22.3,0-99.62,126.98-290.19Z"/>
    <path class="cls-5" d="M1387.15,1264.79c49.03-24.23,121.02-63.21,193.41-116.64,18.81-13.89,83.94-62.92,125.84-122.64,3.62-5.16,7.08-10.39,7.08-10.39,28.93-43.8,44.67-83.66,53.64-112.01,7.97,65.79-3.47,111.63-13.17,138.49-40.48,112.13-148.32,164.09-262.17,218.94-54.38,26.2-101.63,42.99-132.45,52.94,9.27-16.23,18.55-32.45,27.82-48.68Z"/>
    <path class="cls-9" d="M1367.71,1344.77c130.46-62.24,220-134.66,275.2-186.28,76.41-71.45,143.58-136.05,138.89-219.9-2.35-42.01-31.01-87.3-62.82-116.01-17.46-15.75-43.75-16.53-62.06-1.78-3.21,2.58-6.41,5.17-9.62,7.75-14.77,11.9-35.32,14.52-52.11,5.7-2.58-1.36-5.3-2.11-8.08-1.91-12.88.95-25.75,22.41-28.46,55.91-.62,7.69-3.04,15.11-7.11,21.67-18.23,29.35-41.17,66.24-82.04,100.91-28.45,24.13-67.54,54.08-117.79,84.07"/>
  </g>
  <path class="cls-1" d="M1187.18,1380.63c-165.76,1.85-331.52,3.7-497.28,5.56-3.05.03-5.51,2.51-5.52,5.55-.39,70.01-.78,140.02-1.17,210.03,0,1.24-.43,2.45-1.2,3.42-16.95,21.54-33.9,43.08-50.85,64.62-2.88,3.66-.27,9.04,4.39,9.04h591.49c4.53,0,7.18-5.12,4.56-8.82-13.79-19.44-27.57-38.88-41.36-58.32-.69-.97-1.05-2.13-1.03-3.32,1.21-74.03,2.41-148.06,3.62-222.08.05-3.14-2.5-5.71-5.65-5.68Z"/>
  <path class="cls-5" d="M1139.39,1436.23c-.48,84.52-.96,169.05-1.44,253.57,31.7-1.33,63.39-2.65,95.09-3.98-13.2-13.19-47.88-51.39-53.73-108.97-4.98-49.03,13.55-86.44,22.81-102.42-20.91-12.73-41.82-25.47-62.72-38.2Z"/>
  <path class="cls-9" d="M683.2,1330.02v262c0,7.46-2.96,14.62-8.24,19.9l-31.94,31.94c-17.73,17.73-5.17,48.04,19.9,48.04h540.01c25.07,0,37.63-30.31,19.9-48.04l-25.4-25.4c-5.28-5.28-8.24-12.44-8.24-19.9v-268.54c0-15.54-12.6-28.14-28.14-28.14h-449.69c-15.54,0-28.14,12.6-28.14,28.14Z"/>
  <line class="cls-9" x1="932.92" y1="1484.47" x2="932.92" y2="1691.91"/>
  <path class="cls-10" d="M942.44,308.1c-39.51-.62-74.85,19.76-89.78,51.56-21.89,46.61,6.15,104.82,51.09,124.38,44.42,19.32,103.4.04,118.96-37.89,8.32-20.28,8.23-55.66-15.21-68.33-19.26-10.41-48.94-2.59-66.27,22.42"/>
  <ellipse class="cls-1" cx="936.41" cy="1014.91" rx="571.26" ry="517.97"/>
  <path class="cls-9" d="M860.91,919.12c12.06,31.7,43.23,51.34,75.09,48.25,27.25-2.64,51.01-21.5,60.88-48.25"/>
  <path class="cls-5" d="M1479.59,884.52c9.51,31.8,42.45,153.75-2.28,289.8-88.56,269.41-397.65,338.7-413.52,342,260.18-68.98,425.52-318.84,391.5-567-37.67-274.76-310.59-480.78-606.6-433.47,45.72-6.94,253.87-33.49,439.2,104.07,39.06,29,145.84,111.28,191.7,264.6Z"/>
  <ellipse class="cls-9" cx="936.41" cy="1014.91" rx="571.26" ry="517.97"/>
  <g>
    <circle class="cls-4" cx="1300.51" cy="1012.7" r="101.91"/>
    <circle class="cls-4" cx="562.09" cy="1012.7" r="101.91"/>
  </g>
  <path class="cls-5" d="M1593.31,433.18c10.79,6.35,26.04,17.81,36.45,36.98,16.16,29.76,10.86,60.03,9.24,69.3-2.85,16.3-6.98,18.75-15.07,48.6-4.42,16.3-7.05,29.85-8.57,38.62h22.05c1.07-6.4,3.27-16.79,8.1-28.8,13.36-33.18,31.22-39.69,37.78-68.13,4.09-17.74,1.03-32.07.02-36.27-7.32-30.46-31.25-46.11-35.19-48.6-23.98-15.16-48.14-12.62-54.81-11.7Z"/>
  <path class="cls-8" d="M1606.36,640.23c-1.33-5.16-3.35-12.5-6.23-21.2-11.38-34.34-21.01-44.11-16.25-52.37,5.75-9.97,28.96-11.68,35.57-3.12,6.44,8.33-6.7,21.42-6.23,47.38.23,12.72,3.62,22.96,6.23,29.3h-13.09Z"/>
  <g>
    <circle class="cls-7" cx="675.76" cy="917.2" r="121.33"/>
    <circle class="cls-6" cx="675.76" cy="917.2" r="89.28"/>
  </g>
  <g>
    <circle class="cls-7" cx="1182.04" cy="917.2" r="121.33"/>
    <circle class="cls-6" cx="1182.04" cy="917.2" r="89.28"/>
  </g>
  <g>
    <path class="cls-11" d="M1114.23,696.62c9.67-3.69,26.65-8.76,48.2-7.94,21.99.83,38.81,7.42,48.2,11.92"/>
    <path class="cls-11" d="M743.57,696.62c-9.67-3.69-26.65-8.76-48.2-7.94-21.99.83-38.81,7.42-48.2,11.92"/>
  </g>
  <g>
    <circle class="cls-7" cx="719.06" cy="858.4" r="23.69"/>
    <circle class="cls-7" cx="1232.66" cy="858.4" r="23.69"/>
  </g>
</svg>