<?xml version="1.0" encoding="UTF-8"?>
<svg id="Camada_1" data-name="Camada 1" xmlns="http://www.w3.org/2000/svg" viewBox="0 0 2000 2000">
  <defs>
    <style>
      .cls-1 {
        fill: #3a536f;
      }

      .cls-2 {
        fill: #cf7c61;
      }

      .cls-3 {
        fill: #fff;
      }

      .cls-4 {
        fill: #f6ecd7;
      }

      .cls-4, .cls-5 {
        stroke: #3a536f;
        stroke-linecap: round;
        stroke-linejoin: round;
        stroke-width: 39px;
      }

      .cls-5 {
        fill: none;
      }
    </style>
  </defs>
  <path class="cls-2" d="M1265.46,1413.49c-169.5,1.89-339.01,3.79-508.51,5.68-.4,72.48-.8,144.96-1.21,217.43-19.72,25.05-39.43,50.11-59.15,75.16h613.8c-16.22-22.88-32.45-45.75-48.67-68.63,1.25-76.55,2.49-153.1,3.74-229.65Z"/>
  <path class="cls-5" d="M755.74,1358.18v268.74c0,6.2-2.46,12.15-6.85,16.53l-41.46,41.46c-14.73,14.73-4.3,39.91,16.53,39.91h563c20.83,0,31.26-25.18,16.53-39.91l-34.93-34.93c-4.38-4.38-6.85-10.33-6.85-16.53v-275.28c0-12.91-10.47-23.38-23.38-23.38h-459.22c-12.91,0-23.38,10.47-23.38,23.38Z"/>
  <line class="cls-5" x1="1005.46" y1="1517.39" x2="1005.46" y2="1724.83"/>
  <ellipse class="cls-2" cx="1003.49" cy="994.27" rx="571.26" ry="535.55"/>
  <ellipse class="cls-5" cx="1003.49" cy="994.27" rx="571.26" ry="535.55"/>
  <circle class="cls-3" cx="758.42" cy="937.21" r="97.59"/>
  <circle class="cls-1" cx="758.42" cy="937.21" r="61.66"/>
  <circle class="cls-3" cx="1248.56" cy="937.21" r="97.59"/>
  <circle class="cls-1" cx="1248.56" cy="937.21" r="61.66"/>
  <g>
    <path class="cls-4" d="M602.38,1060.76c49.46,1.61,115.92,7.99,190.46,27.85,97.5,25.97,168.86,64.36,213.54,92.83,19.23-22,87.63-94.4,213.54-120.67,80.96-16.89,149.52-7.16,184.69,0v436.28c-44.57-1.6-115.56.39-196.23,23.21-104.19,29.46-171.6,78.68-204.89,106.75-43.6-28.25-113.96-66.78-210.66-92.83-74.8-20.15-141.42-26.38-190.46-27.85v-445.56Z"/>
    <path class="cls-4" d="M1006.38,1181.43c-.96,148.52-1.92,297.04-2.89,445.56"/>
  </g>
  <path class="cls-5" d="M942.35,961.91c10.51,34.74,43.89,55.56,75.29,50.19,24.6-4.21,45.12-24.01,52.12-50.19"/>
  <path class="cls-2" d="M410.68,998.17c-20.4,30.67-47.8,77.95-68.46,140.09-24.2,72.81-54.7,163.59-15.24,252.33,23.84,53.6,81.7,128.35,147.88,122.49,52.78-4.67,89.02-58.66,116.28-99.28,28.68-42.74,42.54-84.43,49.64-112.92-8.19-10.54-16.37-21.09-24.56-31.63,10.76-21.42,21.52-42.84,32.29-64.25-12.47-4.35-38.37-11.42-70.5-5.56-34.13,6.23-57.15,23.75-67.32,32.57-18.43-23.7-39.15-54.7-57.37-93.23-25.62-54.16-37.15-103.8-42.64-140.59Z"/>
  <path class="cls-5" d="M426.44,963.08c-24.4,27.27-60.74,73.94-86.97,139.91-18.04,45.38-79.66,200.38.28,312.5,29.56,41.46,103.41,112.02,179.14,86.11,52.9-18.1,90.38-77.68,93.76-149.2,9.52-16.54,19.05-33.08,28.57-49.62-7.94-10.45-15.88-20.89-23.82-31.34,10.41-21.19,20.82-42.38,31.23-63.58-7.31-4.16-45.8-25.06-88.89-7.92-23.04,9.17-37.53,25.29-44.62,34.53-20.21-22.25-53.37-64.53-73.61-126.91-19.99-61.62-18.24-114.7-15.08-144.49Z"/>
  <path class="cls-2" d="M1589.32,998.17c20.4,30.67,47.8,77.95,68.46,140.09,24.2,72.81,54.7,163.59,15.24,252.33-23.84,53.6-81.7,128.35-147.88,122.49-52.78-4.67-89.02-58.66-116.28-99.28-28.68-42.74-42.54-84.43-49.64-112.92,8.19-10.54,16.37-21.09,24.56-31.63-10.76-21.42-21.52-42.84-32.29-64.25,12.47-4.35,38.37-11.42,70.5-5.56,34.13,6.23,57.15,23.75,67.32,32.57,18.43-23.7,39.15-54.7,57.37-93.23,25.62-54.16,37.15-103.8,42.64-140.59Z"/>
  <path class="cls-5" d="M1573.56,963.08c24.4,27.27,60.74,73.94,86.97,139.91,18.04,45.38,79.66,200.38-.28,312.5-29.56,41.46-103.41,112.02-179.14,86.11-52.9-18.1-90.38-77.68-93.76-149.2-9.52-16.54-19.05-33.08-28.57-49.62,7.94-10.45,15.88-20.89,23.82-31.34-10.41-21.19-20.82-42.38-31.23-63.58,7.31-4.16,45.8-25.06,88.89-7.92,23.04,9.17,37.53,25.29,44.62,34.53,20.21-22.25,53.37-64.53,73.61-126.91,19.99-61.62,18.24-114.7,15.08-144.49Z"/>
  <path class="cls-5" d="M1012.41,275.18c-39.51-.62-74.85,19.76-89.78,51.56-21.89,46.61,6.15,104.82,51.09,124.38,44.42,19.32,103.4.04,118.96-37.89,8.32-20.28,8.23-55.66-15.21-68.33-19.26-10.41-48.94-2.59-66.27,22.42"/>
</svg>