<?xml version="1.0" encoding="UTF-8"?>
<svg id="Camada_1" data-name="Camada 1" xmlns="http://www.w3.org/2000/svg" viewBox="0 0 2000 2000">
  <defs>
    <style>
      .cls-1 {
        fill: #3a536f;
      }

      .cls-2, .cls-3, .cls-4 {
        fill: #f5be66;
      }

      .cls-5 {
        fill: #fff;
      }

      .cls-3 {
        stroke-width: 28px;
      }

      .cls-3, .cls-4, .cls-6, .cls-7 {
        stroke: #3a536f;
        stroke-linecap: round;
        stroke-linejoin: round;
      }

      .cls-4, .cls-6 {
        stroke-width: 39px;
      }

      .cls-6, .cls-7 {
        fill: none;
      }

      .cls-7 {
        stroke-width: 30px;
      }
    </style>
  </defs>
  <path class="cls-2" d="M201.45,1430.37c-23.84-237.22,24.99-419.14,122.02-451.77,40.77-13.71,101.42-4.89,136.34,30.36,16.44,16.59,38.75,50.71,23.36,199.44-6.57,63.48-20.39,151.52-52.16,255.01-22.07-6.27-44.13-12.54-66.2-18.81-13.71,9.23-27.43,18.46-41.14,27.69-15.65-18.19-31.3-36.39-46.95-54.58-19.98,31.29-47.66,43.17-62.28,35.26-2.14-1.16-9.97-5.97-13-22.61Z"/>
  <path class="cls-6" d="M207.47,1211.52c14.35-126.22,38.56-169.72,65.92-199.55,14.72-16.05,54.85-59.79,106.48-54.89,56.02,5.32,88.94,64.44,94.78,74.92,25.11,45.09,26.55,94.23-11.04,281.33-8.58,42.7-19.32,93.24-32.59,150.07-3.48,14.9-22.05,20.09-32.74,9.13-7.22-7.4-14.44-14.81-21.66-22.21-8.29-8.5-22.2-7.61-29.34,1.87-2.1,2.79-4.2,5.58-6.31,8.37-8.34,11.07-25.27,10.05-32.23-1.94-6.1-10.5-12.19-21.01-18.29-31.51-5.92-10.21-19.52-12.79-28.77-5.47-9.62,7.61-19.24,15.22-28.86,22.83-12.3,9.73-30.48,1.56-31.36-14.1-5.07-90.01-.15-164.58,6.02-218.85Z"/>
  <path class="cls-4" d="M1211.97,1116.67c73.13-25.12,124.95-55.78,158.58-78.94,40.66-28,77.05-52.8,138.43-99.37,32.15-24.39,58.34-45.04,76.12-59.23,3.47,20.64,6.93,41.27,10.4,61.91,16.69-2.74,33.37-5.47,50.06-8.21-6.85,20.7-13.7,41.41-20.56,62.11,18.66,3.84,37.33,7.68,55.99,11.52-2.66,5.35-5.93,11.73-9.8,18.91,0,0-6.47,12.02-13.41,23.76-40.24,68.07-84.53,113.82-84.53,113.82-55.81,57.66-113.87,87.22-126.77,93.61-93.64,46.36-182.7,47.63-231.32,44.36"/>
  <path class="cls-2" d="M1132.17,1417.08c-169.5,1.89-339.01,3.79-508.51,5.68-.4,72.48-.8,144.96-1.21,217.43-19.72,25.05-39.43,50.11-59.15,75.16h613.8c-16.22-22.88-32.45-45.75-48.67-68.63,1.25-76.55,2.49-153.1,3.74-229.65Z"/>
  <path class="cls-6" d="M622.45,1361.77v268.74c0,6.2-2.46,12.15-6.85,16.53l-41.46,41.46c-14.73,14.73-4.3,39.91,16.53,39.91h563c20.83,0,31.26-25.18,16.53-39.91l-34.93-34.93c-4.38-4.38-6.85-10.33-6.85-16.53v-275.28c0-12.91-10.47-23.38-23.38-23.38h-459.22c-12.91,0-23.38,10.47-23.38,23.38Z"/>
  <line class="cls-6" x1="872.17" y1="1520.98" x2="872.17" y2="1728.42"/>
  <ellipse class="cls-2" cx="870.2" cy="997.85" rx="571.26" ry="535.55"/>
  <ellipse class="cls-6" cx="870.2" cy="997.85" rx="571.26" ry="535.55"/>
  <circle class="cls-5" cx="625.13" cy="940.8" r="97.59"/>
  <circle class="cls-1" cx="625.13" cy="940.8" r="61.66"/>
  <circle class="cls-5" cx="1115.27" cy="940.8" r="97.59"/>
  <circle class="cls-1" cx="1115.27" cy="940.8" r="61.66"/>
  <path class="cls-6" d="M809.06,965.5c10.51,34.74,43.89,55.56,75.29,50.19,24.6-4.21,45.12-24.01,52.12-50.19"/>
  <path class="cls-6" d="M901.4,271.59c-39.51-.62-74.85,19.76-89.78,51.56-21.89,46.61,6.15,104.82,51.09,124.38,44.42,19.32,103.4.04,118.96-37.89,8.32-20.28,8.23-55.66-15.21-68.33-19.26-10.41-48.94-2.59-66.27,22.42"/>
  <g>
    <path class="cls-3" d="M1607.11,689.28c-1.99-10.25-6.06-25.99-15.2-43.2-12.56-23.63-21.8-25.76-28.81-42.36-9.37-22.19-7.74-53.62,9.65-77.88,22.37-31.21,58.83-33.79,66.68-34.12,4.95-.21,48.17-1.3,73.91,33.43,20.72,27.96,19.27,64.49,7.99,87.12-6.01,12.07-12,14.53-21.82,33.37-9,17.28-13.23,33.01-15.4,43.64h-77.01Z"/>
    <path class="cls-3" d="M1619.75,766.34h47.41"/>
    <path class="cls-3" d="M1606.27,727.81h74.36"/>
  </g>
  <g>
    <path class="cls-7" d="M1764.42,429.19c-9.21,12.31-18.42,24.62-27.63,36.92"/>
    <path class="cls-7" d="M1695.47,394.72c-2.71,15.13-5.42,30.27-8.12,45.4"/>
    <path class="cls-7" d="M1804.53,488.5c-12.99,8.22-25.98,16.44-38.97,24.66"/>
  </g>
</svg>