<?xml version="1.0" encoding="UTF-8"?>
<svg id="Camada_1" data-name="Camada 1" xmlns="http://www.w3.org/2000/svg" viewBox="0 0 2000 2000">
  <defs>
    <style>
      .cls-1 {
        fill: none;
      }

      .cls-2 {
        opacity: .32;
      }

      .cls-2, .cls-3 {
        fill: #3b9bc9;
      }

      .cls-4 {
        fill: #325472;
      }

      .cls-5 {
        fill: #fff;
      }

      .cls-6 {
        opacity: .5;
      }

      .cls-7 {
        opacity: .3;
      }

      .cls-8 {
        fill: #badaf6;
      }
    </style>
  </defs>
  <rect class="cls-2" x="-32" y="-45.82" width="2062.8" height="2246.42"/>
  <g>
    <path class="cls-4" d="M1008.06,967.51c-26.24,0-52.1-5.04-75.28-15.12-46.11-20.06-84.8-61.62-103.48-111.16-17.48-46.35-16.32-94.84,3.26-136.55,29.6-63.04,97.58-103.34,173.8-103.34,1.13,0,2.25,0,3.38.03,18.83.29,33.86,15.8,33.56,34.63-.29,18.65-15.5,33.57-34.08,33.57-.18,0-.36,0-.54,0-.78-.01-1.56-.02-2.33-.02-49.86,0-93.67,25-112.05,64.13-11.69,24.88-12.11,54.53-1.18,83.49,12.32,32.66,37.32,59.84,66.88,72.7,29.7,12.92,66.82,12.76,99.3-.42,23.76-9.65,41.52-25.23,48.71-42.77,8.42-20.52,8.97-58.1-9.36-68.02-15.97-8.63-45.25-.31-63.36,25.83-10.73,15.48-31.97,19.33-47.45,8.61-15.48-10.73-19.33-31.97-8.61-47.45,36.48-52.65,103.18-73.29,151.84-46.98,26.64,14.4,44.12,41.34,49.21,75.86,3.78,25.63.35,54.8-9.18,78.03-14.31,34.9-44.91,63.33-86.16,80.07-24.46,9.93-50.85,14.89-76.88,14.89Z"/>
    <ellipse class="cls-8" cx="999.4" cy="1783.11" rx="927.55" ry="841.04"/>
    <path class="cls-4" d="M1021.22,1723.72c-83.94,0-130.89-58.47-132.89-61.01-9.7-12.34-7.56-30.2,4.77-39.9,12.32-9.69,30.15-7.57,39.86,4.73,1.55,1.92,33.93,41.18,92.21,39.29,53.89-1.7,82.71-37.68,83.91-39.21,9.68-12.35,27.54-14.51,39.89-4.83,12.35,9.68,14.51,27.54,4.83,39.89-7.64,9.75-49.69,58.52-126.84,60.95-1.93.06-3.86.09-5.75.09Z"/>
    <g class="cls-7">
      <path class="cls-3" d="M1881.37,1571.39c15.44,51.63,68.92,249.64-3.7,470.55-143.79,437.44-645.67,549.95-671.44,555.3,422.45-112.01,690.92-517.7,635.68-920.64-61.16-446.13-504.31-780.65-984.94-703.83,74.24-11.26,412.21-54.38,713.13,168.98,63.43,47.08,236.81,180.68,311.26,429.63Z"/>
    </g>
    <path class="cls-4" d="M999.4,2652.56c-128.71,0-253.61-22.87-371.22-67.98-113.75-43.62-215.94-106.11-303.75-185.72-88-79.79-157.12-172.78-205.44-276.37-50.14-107.48-75.56-221.66-75.56-339.38s25.42-231.9,75.56-339.38c48.32-103.59,117.45-196.58,205.44-276.37,87.8-79.61,190-142.1,303.75-185.72,117.61-45.11,242.51-67.98,371.22-67.98s253.61,22.87,371.22,67.98c113.75,43.62,215.94,106.11,303.74,185.72,88,79.79,157.12,172.78,205.45,276.37,50.13,107.48,75.55,221.66,75.55,339.38s-25.42,231.91-75.55,339.38c-48.32,103.6-117.45,196.58-205.45,276.37-87.8,79.61-190,142.1-303.74,185.72-117.61,45.11-242.51,67.98-371.22,67.98ZM999.4,970.49c-495.78,0-899.14,364.54-899.14,812.62s403.35,812.62,899.14,812.62,899.13-364.54,899.13-812.62-403.35-812.62-899.13-812.62Z"/>
    <g>
      <circle class="cls-3" cx="1620.54" cy="1730.22" r="165.48"/>
      <circle class="cls-3" cx="421.57" cy="1730.22" r="165.48"/>
    </g>
    <g class="cls-6">
      <path class="cls-3" d="M1406.79,1330.79c-10.29,0-20.7-2.79-30.06-8.64-16.03-10.02-34.37-16.87-53.03-19.81-18.98-2.99-38.85-2.03-57.47,2.78-30.39,7.85-61.39-10.43-69.23-40.82-7.85-30.39,10.43-61.39,40.82-69.23,34.03-8.79,68.88-10.47,103.57-5,34.12,5.37,66.27,17.38,95.58,35.69,26.62,16.63,34.71,51.69,18.08,78.31-10.78,17.25-29.3,26.72-48.25,26.72Z"/>
    </g>
    <g class="cls-6">
      <path class="cls-3" d="M592,1335.29c-17.37,0-34.51-7.93-45.66-22.94-18.72-25.19-13.47-60.79,11.73-79.51,27.74-20.61,58.82-35.16,92.39-43.26,34.14-8.24,69.02-9.36,103.64-3.34,30.92,5.38,51.63,34.8,46.25,65.73-5.38,30.92-34.8,51.62-65.73,46.25-18.95-3.29-38.83-2.66-57.51,1.85-18.36,4.43-36.09,12.73-51.27,24.01-10.18,7.56-22.07,11.21-33.85,11.21Z"/>
    </g>
    <g>
      <g>
        <circle class="cls-5" cx="1391.35" cy="1607.9" r="197"/>
        <circle class="cls-4" cx="1391.35" cy="1607.9" r="144.97"/>
      </g>
      <path class="cls-1" d="M1401.28,1804.9c-8.64.43-95.94,3.31-157.72-66.76-7.66-8.68-49.09-57.24-49.21-130.24-.06-34.92,9.36-62.52,16.46-78.92,120.36,0,240.72,0,361.08,0,7.26,17.31,18.19,49.94,15.47,91.37-1.26,19.24-7.66,73.49-51.04,120.93-53.39,58.39-123.23,63.03-135.04,63.62Z"/>
      <g>
        <circle class="cls-5" cx="608.02" cy="1607.9" r="197"/>
        <circle class="cls-4" cx="608.02" cy="1607.9" r="144.97"/>
      </g>
      <path class="cls-1" d="M617.95,1804.9c-8.64.43-95.94,3.31-157.72-66.76-7.66-8.68-49.09-57.24-49.21-130.24-.06-34.92,9.36-62.52,16.46-78.92,120.36,0,240.72,0,361.08,0,7.26,17.31,18.19,49.94,15.47,91.37-1.26,19.24-7.66,73.49-51.04,120.93-53.39,58.39-123.23,63.03-135.04,63.62Z"/>
    </g>
    <circle class="cls-5" cx="1478.76" cy="1714.71" r="31.79"/>
    <circle class="cls-5" cx="690.21" cy="1714.71" r="31.79"/>
  </g>
</svg>