<?xml version="1.0" encoding="UTF-8"?>
<svg id="Camada_1" data-name="Camada 1" xmlns="http://www.w3.org/2000/svg" viewBox="0 0 2000 2000">
  <defs>
    <style>
      .cls-1, .cls-2, .cls-3, .cls-4 {
        fill: none;
      }

      .cls-5 {
        opacity: .3;
      }

      .cls-5, .cls-6 {
        fill: #3b9bc9;
      }

      .cls-7 {
        fill: #eafff4;
      }

      .cls-7, .cls-2, .cls-3, .cls-4, .cls-8 {
        stroke-linecap: round;
        stroke-linejoin: round;
      }

      .cls-7, .cls-3, .cls-4, .cls-8 {
        stroke: #325472;
      }

      .cls-7, .cls-3, .cls-8 {
        stroke-width: 35px;
      }

      .cls-2 {
        opacity: .5;
        stroke: #3b9bc9;
        stroke-width: 70px;
      }

      .cls-9 {
        fill: #325472;
      }

      .cls-10 {
        fill: #fff;
      }

      .cls-4 {
        stroke-width: 42px;
      }

      .cls-11 {
        fill: #badaf6;
      }

      .cls-12 {
        fill: #ffff8c;
        opacity: .1;
      }

      .cls-8 {
        fill: #fffff4;
      }
    </style>
  </defs>
  <path class="cls-11" d="M558.9,1221.44c-1.71,74.05-3.42,148.1-5.12,222.15-14.38,4.49-32.3,12.86-44.14,29.8-16.34,23.38-7.4,43.53-18.21,55.24-21.37,23.15-106.11-1.64-145.35-39.96-131.06-127.96,60.14-587.46,142.22-576.01,31.54,4.4,59.26,80.07,70.6,308.79Z"/>
  <path class="cls-3" d="M437.24,915.82c-67.83,127.64-96.7,239.12-110.36,313.45-18.91,102.89-34.45,194.78,19.2,259.38,26.88,32.37,76.86,51.72,119.51,55.86,23.4,2.27,45-12.74,50.94-35.5,1.04-3.99,2.08-7.97,3.12-11.96,4.79-18.35,19.74-32.68,38.49-35.58,2.88-.45,5.52-1.46,7.63-3.27,9.79-8.43,7.36-33.33-10.39-61.87-4.07-6.55-6.55-13.96-7.18-21.64-2.81-34.44-6.32-77.73,5.9-129.92,8.51-36.32,22.11-83.65,44.65-137.65"/>
  <path class="cls-11" d="M1251,1380.63c-165.76,1.85-331.52,3.7-497.28,5.56-3.05.03-5.51,2.51-5.52,5.55-.39,70.01-.78,140.02-1.17,210.03,0,1.24-.43,2.45-1.2,3.42-16.95,21.54-33.9,43.08-50.85,64.62-2.88,3.66-.27,9.04,4.39,9.04h591.49c4.53,0,7.18-5.12,4.56-8.82-13.79-19.44-27.57-38.88-41.36-58.32-.69-.97-1.05-2.13-1.03-3.32,1.21-74.03,2.41-148.06,3.62-222.08.05-3.14-2.5-5.71-5.65-5.68Z"/>
  <path class="cls-5" d="M1203.21,1436.23c-.48,84.52-.96,169.05-1.44,253.57,31.7-1.33,63.39-2.65,95.09-3.98-13.2-13.19-47.88-51.39-53.73-108.97-4.98-49.03,13.55-86.44,22.81-102.42-20.91-12.73-41.82-25.47-62.72-38.2Z"/>
  <path class="cls-3" d="M747.02,1330.02v262c0,7.46-2.96,14.62-8.24,19.9l-31.94,31.94c-17.73,17.73-5.17,48.04,19.9,48.04h540.01c25.07,0,37.63-30.31,19.9-48.04l-25.4-25.4c-5.28-5.28-8.24-12.44-8.24-19.9v-268.54c0-15.54-12.6-28.14-28.14-28.14h-449.69c-15.54,0-28.14,12.6-28.14,28.14Z"/>
  <line class="cls-3" x1="996.74" y1="1484.47" x2="996.74" y2="1691.91"/>
  <path class="cls-4" d="M1006.26,308.1c-39.51-.62-74.85,19.76-89.78,51.56-21.89,46.61,6.15,104.82,51.09,124.38,44.42,19.32,103.4.04,118.96-37.89,8.32-20.28,8.23-55.66-15.21-68.33-19.26-10.41-48.94-2.59-66.27,22.42"/>
  <ellipse class="cls-11" cx="1000.23" cy="1014.91" rx="571.26" ry="517.97"/>
  <path class="cls-3" d="M945.57,929.95c1.26,1.6,26.3,32.26,71.08,30.85,40.92-1.29,62.86-28.25,64.9-30.85"/>
  <path class="cls-5" d="M1543.41,884.52c9.51,31.8,42.45,153.75-2.28,289.8-88.56,269.41-397.65,338.7-413.52,342,260.18-68.98,425.52-318.84,391.5-567-37.67-274.76-310.59-480.78-606.6-433.47,45.72-6.94,253.87-33.49,439.2,104.07,39.06,29,145.84,111.28,191.7,264.6Z"/>
  <ellipse class="cls-3" cx="1000.23" cy="1014.91" rx="571.26" ry="517.97"/>
  <g>
    <circle class="cls-6" cx="1382.77" cy="982.34" r="101.91"/>
    <circle class="cls-6" cx="644.35" cy="982.34" r="101.91"/>
  </g>
  <path class="cls-2" d="M1251.16,701.34c-8.78-5.48-24.46-13.73-45.76-17.09-21.74-3.42-39.51-.21-49.59,2.4"/>
  <path class="cls-2" d="M749.29,704.11c8.31-6.17,23.27-15.66,44.24-20.71,21.39-5.16,39.37-3.38,49.62-1.6"/>
  <circle class="cls-10" cx="1241.62" cy="907.01" r="121.33"/>
  <path class="cls-1" d="M1247.73,1028.33c-5.32.27-59.09,2.04-97.14-41.12-4.72-5.35-30.23-35.25-30.31-80.21-.03-21.5,5.77-38.5,10.14-48.6h222.38c4.47,10.66,11.2,30.76,9.53,56.27-.78,11.85-4.72,45.26-31.43,74.48-32.88,35.96-75.89,38.82-83.17,39.18Z"/>
  <circle class="cls-10" cx="759.18" cy="907.01" r="121.33"/>
  <path class="cls-1" d="M765.3,1028.33c-5.32.27-59.09,2.04-97.14-41.12-4.72-5.35-30.23-35.25-30.31-80.21-.03-21.5,5.77-38.5,10.14-48.6h222.38c4.47,10.66,11.2,30.76,9.53,56.27-.78,11.85-4.72,45.26-31.43,74.48-32.88,35.96-75.89,38.82-83.17,39.18Z"/>
  <circle class="cls-9" cx="771.07" cy="925.11" r="89.28"/>
  <circle class="cls-9" cx="1229.38" cy="925.11" r="89.28"/>
  <g>
    <circle class="cls-10" cx="1172.52" cy="980.12" r="18.99"/>
    <circle class="cls-10" cx="822.99" cy="980.12" r="18.99"/>
  </g>
  <path class="cls-12" d="M982.04,1228.59c-78.59-136.02-157.18-272.03-235.77-408.05h504.89c-36.2,134.76-72.41,269.51-108.61,404.27-53.5,1.26-107.01,2.52-160.51,3.78Z"/>
  <path class="cls-7" d="M996.99,1042.92h169.11c13.82,0,25.04,11.22,25.04,25.04v307.02c0,13.82-11.22,25.04-25.04,25.04h-169.11c-13.82,0-25.04-11.22-25.04-25.04v-307.02c0-13.82,11.22-25.04,25.04-25.04Z"/>
  <g>
    <path class="cls-11" d="M1327.41,1148.48c-30.13-41.41-83.32-57.02-127.11-39.06-49.81,20.43-74.2,78.86-61.44,119.54,2.04,6.52,7.85,21.51,35.22,43.8,9.32,7.59,61.81,49.03,136.18,56.3,107.03,10.46,253.78-50.44,289.15-172.74,16.43-56.79,3.92-109.81-9.09-144.38-21.93,32.23-53.57,67.93-98.06,96.8-19.57,12.7-45.19,28.99-83.29,37.33-33.96,7.43-62.98,5.28-81.57,2.42Z"/>
    <path class="cls-3" d="M1586.92,995.06c12.03,26.87,29.23,76.29,18.12,132.61-25.46,129.08-181.9,204.58-303.79,195.04-26.34-2.06-119.84-9.39-148.63-74.89-15.58-35.45-12.02-87.51,20.95-116.61,37.56-33.16,105.78-29.91,152.67,17.6,24.74,3.34,70.97,5.93,122.2-14.36,93.17-36.89,130.7-120.85,138.47-139.38Z"/>
  </g>
  <circle class="cls-9" cx="1031.55" cy="1104.69" r="22.94"/>
  <circle class="cls-9" cx="1031.55" cy="1156.94" r="22.94"/>
  <circle class="cls-10" cx="1031.55" cy="1104.69" r="5.69"/>
  <circle class="cls-10" cx="1031.51" cy="1156.94" r="5.69"/>
  <path class="cls-9" d="M1541.33,463.8c-18.52,27.37-37.05,54.75-55.57,82.12-5.2,7.69-1.21,21.7,6.12,21.48l35.44-1.07c5.32-.16,9.46,7.7,8.25,15.67-2.24,14.78-4.47,29.55-6.71,44.33-1.87,12.36,8.26,21.13,13.72,11.88,16.94-28.67,33.89-57.34,50.83-86.01,4.31-7.29,1.24-19.45-5.25-20.81-11.3-2.36-22.6-4.72-33.9-7.08-5.17-1.08-8.52-9.41-6.78-16.88,2.32-9.95,4.63-19.91,6.95-29.86,2.84-12.2-7.11-22.64-13.12-13.76Z"/>
  <g>
    <circle class="cls-8" cx="422.08" cy="460.49" r="126.84"/>
    <path class="cls-8" d="M415.03,390.89v66.29h72.12"/>
  </g>
</svg>