<?xml version="1.0" encoding="UTF-8"?>
<svg id="Camada_1" data-name="Camada 1" xmlns="http://www.w3.org/2000/svg" viewBox="0 0 2000 2000">
  <defs>
    <style>
      .cls-1, .cls-2 {
        stroke-width: 25px;
      }

      .cls-1, .cls-2, .cls-3, .cls-4, .cls-5, .cls-6, .cls-7, .cls-8 {
        stroke-linecap: round;
        stroke-linejoin: round;
      }

      .cls-1, .cls-2, .cls-3, .cls-5, .cls-6, .cls-7, .cls-8 {
        stroke: #325472;
      }

      .cls-1, .cls-9 {
        fill: #fff;
      }

      .cls-10 {
        opacity: .14;
      }

      .cls-10, .cls-11 {
        fill: #ac4530;
      }

      .cls-11, .cls-4 {
        opacity: .35;
      }

      .cls-2 {
        fill: #f3ffff;
      }

      .cls-12 {
        fill: #f7d18e;
        opacity: .78;
      }

      .cls-13, .cls-3 {
        fill: #325472;
      }

      .cls-3 {
        stroke-width: 14px;
      }

      .cls-4 {
        stroke: #ac4530;
        stroke-width: 90px;
      }

      .cls-4, .cls-5, .cls-6, .cls-7 {
        fill: none;
      }

      .cls-5 {
        stroke-width: 35px;
      }

      .cls-6, .cls-8 {
        stroke-width: 30px;
      }

      .cls-7 {
        stroke-width: 42px;
      }

      .cls-14, .cls-8 {
        fill: #ecb299;
      }
    </style>
  </defs>
  <path class="cls-14" d="M1553.89,1262.8c3.24,74,6.47,148,9.71,221.99,14.47,4.19,32.56,12.19,44.74,28.88,16.81,23.04,8.3,43.37,19.34,54.85,21.84,22.7,106.05-3.83,144.5-42.95,128.39-130.64-72.26-586.09-154.09-572.95-31.45,5.05-57.6,81.28-64.21,310.18Z"/>
  <path class="cls-10" d="M1638.82,1031.23c25.99,48.12,62.18,121.56,90.35,207,7.32,22.21,32.11,99.87,31.75,172.83-.03,6.3-.24,12.57-.24,12.57-1.73,52.46-11.93,94.09-21.01,122.4,44.54-49.06,61.72-93.09,69.33-120.6,31.81-114.9-26.12-219.64-87.29-330.22-29.22-52.82-58.05-93.84-77.45-119.78-1.82,18.6-3.63,37.2-5.45,55.8Z"/>
  <path class="cls-5" d="M1669.21,954.74c70.45,126.21,101.62,237.08,116.81,311.11,21.03,102.48,38.47,194.02-13.84,259.72-26.21,32.92-75.78,53.29-118.33,58.32-23.35,2.76-45.26-11.81-51.66-34.44-1.12-3.96-2.24-7.93-3.37-11.89-5.17-18.25-20.42-32.27-39.22-34.78-2.89-.39-5.55-1.34-7.69-3.12-9.96-8.22-8.05-33.18,9.11-62.07,3.94-6.63,6.26-14.09,6.73-21.79,2.1-34.49,4.72-77.85-8.58-129.77-9.25-36.14-23.83-83.18-47.49-136.7"/>
  <path class="cls-14" d="M1348.69,1380.63c-165.76,1.85-331.52,3.7-497.28,5.56-3.05.03-5.51,2.51-5.52,5.55-.39,70.01-.78,140.02-1.17,210.03,0,1.24-.43,2.45-1.2,3.42-16.95,21.54-33.9,43.08-50.85,64.62-2.88,3.66-.27,9.04,4.39,9.04h591.49c4.53,0,7.18-5.12,4.56-8.82-13.79-19.44-27.57-38.88-41.36-58.32-.69-.97-1.05-2.13-1.03-3.32,1.21-74.03,2.41-148.06,3.62-222.08.05-3.14-2.5-5.71-5.65-5.68Z"/>
  <path class="cls-5" d="M844.71,1330.02v262c0,7.46-2.96,14.62-8.24,19.9l-31.94,31.94c-17.73,17.73-5.17,48.04,19.9,48.04h540.01c25.07,0,37.63-30.31,19.9-48.04l-25.4-25.4c-5.28-5.28-8.24-12.44-8.24-19.9v-268.54c0-15.54-12.6-28.14-28.14-28.14h-449.69c-15.54,0-28.14,12.6-28.14,28.14Z"/>
  <line class="cls-5" x1="1094.43" y1="1484.47" x2="1094.43" y2="1691.91"/>
  <path class="cls-10" d="M1300.9,1436.23c-.48,84.52-.96,169.05-1.44,253.57,31.7-1.33,63.39-2.65,95.09-3.98-13.2-13.19-47.88-51.39-53.73-108.97-4.98-49.03,13.55-86.44,22.81-102.42-20.91-12.73-41.82-25.47-62.72-38.2Z"/>
  <path class="cls-14" d="M683.16,976.03c-56.52-74.82-113.05-149.64-169.57-224.46-22.38-7.14-51.46-12.74-66.99,1.82-13.01,12.2-3.14,26.01-12.86,47.52-19.92,44.06-83.34,34.75-101.31,79.87-3.8,9.55-3.94,17.44-4.08,25.62-.67,38.27,23.4,191.78,183.29,319.61,105.27,84.16,283.21,168.2,328.08,119.13,48.21-52.73-68.34-252.34-156.56-369.12Z"/>
  <path class="cls-5" d="M707.43,1016.52c-47.77-33.8-84.42-66.69-110.91-92.95-38.06-37.74-58.07-76.3-73.97-106.97-3.55-6.85-5.38-14.44-5.4-22.15-.1-33.6-11.27-56-24.04-57.95-2.75-.42-5.52.12-8.2,1.27-17.43,7.49-37.71,3.29-51.51-9.72-6.2-5.84-6.83-8.84-8.99-8.48-11.63,1.97,16.79,100.57-21.78,132.97-27.79,23.35-66.95-7.34-88.63,11.34-33.16,28.57,8.85,143,58.38,220.9,36.41,57.27,130.45,179.05,352.09,249.59"/>
  <path class="cls-7" d="M1103.95,308.1c-39.51-.62-74.85,19.76-89.78,51.56-21.89,46.61,6.15,104.82,51.09,124.38,44.42,19.32,103.4.04,118.96-37.89,8.32-20.28,8.23-55.66-15.21-68.33-19.26-10.41-48.94-2.59-66.27,22.42"/>
  <ellipse class="cls-14" cx="1097.91" cy="1014.91" rx="571.26" ry="517.97"/>
  <path class="cls-10" d="M1641.1,884.52c9.51,31.8,42.45,153.75-2.28,289.8-88.56,269.41-397.65,338.7-413.52,342,260.18-68.98,425.52-318.84,391.5-567-37.67-274.76-310.59-480.78-606.6-433.47,45.72-6.94,253.87-33.49,439.2,104.07,39.06,29,145.84,111.28,191.7,264.6Z"/>
  <ellipse class="cls-5" cx="1097.91" cy="1014.91" rx="571.26" ry="517.97"/>
  <g>
    <circle class="cls-11" cx="1475.66" cy="997.46" r="115"/>
    <circle class="cls-11" cx="720.16" cy="997.46" r="115"/>
  </g>
  <path class="cls-5" d="M1033.87,997.66c1.59,1.73,32.9,34.7,77.7,25.58,40.94-8.33,57.67-44.6,59.2-48.08"/>
  <g>
    <g>
      <circle class="cls-9" cx="1354.33" cy="937.72" r="121.33"/>
      <circle class="cls-13" cx="1354.33" cy="937.72" r="89.28"/>
    </g>
    <g>
      <circle class="cls-9" cx="841.49" cy="937.72" r="121.33"/>
      <circle class="cls-13" cx="841.49" cy="937.72" r="89.28"/>
    </g>
  </g>
  <circle class="cls-9" cx="888.06" cy="874.9" r="23.69"/>
  <path class="cls-2" d="M222.33,953.03c-4.46,20.88-8.26,46.25-9.26,75.22-.63,18.15-.07,34.97,1.17,50.19,1.17,14.3,12.83,25.52,27.17,25.96,14.97.46,31.78.02,50.03-2.02,30.19-3.38,55.64-10.17,75.28-16.89,70.86-78.92,141.72-157.85,212.58-236.77-48.89-44.59-97.78-89.18-146.67-133.78l-210.28,238.1Z"/>
  <path class="cls-12" d="M239.11,952.18c14.07.8,28.15,1.59,42.22,2.39,3.06,20.99,6.11,41.98,9.17,62.97,24.35.1,48.71.21,73.06.31,2.61,14.88,5.22,29.77,7.83,44.65,65.66-73.61,131.33-147.22,196.99-220.84-45.26-42.24-90.52-84.48-135.78-126.73-64.5,79.08-129,158.16-193.5,237.25Z"/>
  <path class="cls-6" d="M228.42,955.11c17.66,2.28,35.31,4.55,52.97,6.83,3.82,19.83,7.63,39.66,11.45,59.49,19.6,1.28,39.2,2.56,58.8,3.84,5.02,20.07,10.05,40.14,15.07,60.21"/>
  <rect class="cls-2" x="405.42" y="725.83" width="238.99" height="67.76" rx="30.62" ry="30.62" transform="translate(643.78 -156.02) rotate(42.04)"/>
  <path class="cls-3" d="M543.37,639.96h80.51c33.33,0,60.39,27.06,60.39,60.39v48.88h-201.29v-48.88c0-33.33,27.06-60.39,60.39-60.39Z" transform="translate(615.29 -212.09) rotate(42.04)"/>
  <path class="cls-1" d="M281.33,954.57c61.04-67.91,122.09-135.83,183.13-203.74"/>
  <path class="cls-13" d="M216.34,988.23c1.89,10.4,9.48,44.91,40.97,72.63,29.97,26.39,63.14,30.37,73.96,31.22-11.42,5.69-40.02,17.9-74.86,11.07-13.04-2.56-23.69-7.14-31.69-11.52-4.3-8.25-8.67-18.71-11.57-31.23-7.27-31.36-1.24-58.01,3.19-72.17Z"/>
  <path class="cls-8" d="M331.9,844.67c14.14,20.15,17.21,54.04-1.37,67.91-18.89,14.09-52.31,1.64-66.84-20.38-14.74-22.33-12.63-58.42,8.01-69.99,19.24-10.79,47.16,3.89,60.2,22.47Z"/>
  <path class="cls-8" d="M364.74,774.25c5.08,22.91,25.06,48.9,48.63,47.42,26.48-1.66,48.43-37.42,40.88-67.87-7.56-30.47-43.72-51.81-67.87-40.88-20.84,9.43-26.37,40-21.64,61.33Z"/>
  <path class="cls-8" d="M322.69,833.5c12.04,18.17,37.25,34.6,55.9,26.41,20.95-9.2,26.44-46.33,9.78-70.24-16.67-23.92-53.43-31.61-69.28-15.15-13.68,14.2-7.62,42.06,3.6,58.98Z"/>
  <path class="cls-1" d="M350.72,1032.13c62.25-69.26,124.51-138.52,186.76-207.79"/>
  <path class="cls-4" d="M1223.37,789.09c23.82-14.34,47.65-28.69,71.47-43.03"/>
  <path class="cls-4" d="M972.45,789.09c-23.82-14.34-47.65-28.69-71.47-43.03"/>
  <circle class="cls-9" cx="1401.65" cy="874.9" r="23.69"/>
</svg>