<?xml version="1.0" encoding="UTF-8"?>
<svg id="Camada_1" data-name="Camada 1" xmlns="http://www.w3.org/2000/svg" xmlns:xlink="http://www.w3.org/1999/xlink" viewBox="0 0 2000 2000">
  <defs>
    <style>
      .cls-1, .cls-2, .cls-3, .cls-4 {
        fill: none;
      }

      .cls-5, .cls-6 {
        fill: #9ec15c;
      }

      .cls-7 {
        clip-path: url(#clippath-1);
      }

      .cls-8 {
        fill: #325472;
      }

      .cls-9 {
        fill: #c6da87;
      }

      .cls-10 {
        fill: #fff;
      }

      .cls-2 {
        opacity: .7;
        stroke: #9ec15c;
        stroke-width: 80px;
      }

      .cls-2, .cls-3, .cls-4, .cls-11 {
        stroke-linecap: round;
        stroke-linejoin: round;
      }

      .cls-3 {
        stroke-width: 35px;
      }

      .cls-3, .cls-4, .cls-11 {
        stroke: #325472;
      }

      .cls-4 {
        stroke-width: 42px;
      }

      .cls-6 {
        opacity: .5;
      }

      .cls-11 {
        fill: #fff6a4;
        stroke-width: 18px;
      }

      .cls-12 {
        clip-path: url(#clippath);
      }
    </style>
    <clipPath id="clippath">
      <path class="cls-1" d="M1247.73,1028.33c-5.32.27-59.09,2.04-97.14-41.12-4.72-5.35-30.23-35.25-30.31-80.21-.03-21.5,5.77-38.5,10.14-48.6,74.13,0,148.25,0,222.38,0,4.47,10.66,11.2,30.76,9.53,56.27-.78,11.85-4.72,45.26-31.43,74.48-32.88,35.96-75.89,38.82-83.17,39.18Z"/>
    </clipPath>
    <clipPath id="clippath-1">
      <path class="cls-1" d="M765.3,1028.33c-5.32.27-59.09,2.04-97.14-41.12-4.72-5.35-30.23-35.25-30.31-80.21-.03-21.5,5.77-38.5,10.14-48.6,74.13,0,148.25,0,222.38,0,4.47,10.66,11.2,30.76,9.53,56.27-.78,11.85-4.72,45.26-31.43,74.48-32.88,35.96-75.89,38.82-83.17,39.18Z"/>
    </clipPath>
  </defs>
  <path class="cls-9" d="M545.45,1220.34c-5.91,73.83-11.81,147.66-17.72,221.5-14.62,3.67-32.98,11.01-45.76,27.24-17.64,22.42-9.86,43.04-21.31,54.11-22.65,21.9-105.84-7.66-142.85-48.14-123.59-135.19,93.38-583.1,174.68-567.01,31.24,6.18,54.62,83.3,52.96,312.3Z"/>
  <path class="cls-3" d="M441.33,909.17c-74.96,123.59-110.12,233.25-127.97,306.69-24.71,101.66-45.45,192.51,4.45,260.05,25,33.84,73.8,56,116.15,62.55,23.24,3.6,45.65-10.17,52.87-32.55,1.26-3.92,2.53-7.84,3.79-11.76,5.82-18.05,21.57-31.51,40.45-33.34,2.91-.28,5.59-1.14,7.8-2.84,10.25-7.86,9.24-32.86-6.86-62.36-3.7-6.77-5.75-14.31-5.94-22.01-.86-34.54-1.9-77.96,13.26-129.38,10.55-35.78,26.82-82.26,52.39-134.9"/>
  <g>
    <path class="cls-9" d="M1453.24,1215.37c4.81,73.91,9.61,147.82,14.42,221.74,14.56,3.88,32.81,11.5,45.34,27.92,17.3,22.68,9.22,43.18,20.5,54.43,22.32,22.24,105.94-6.08,143.55-46.01,125.58-133.34-84.69-584.42-166.21-569.55-31.33,5.72-55.86,82.48-57.61,311.47Z"/>
    <path class="cls-6" d="M1533.24,982.05c27,47.56,64.75,120.21,94.72,205.04,7.79,22.05,34.22,99.17,35.42,172.11.1,6.3.03,12.57.03,12.58-.61,52.49-9.93,94.32-18.41,122.82,43.49-50,59.73-94.38,66.76-122.04,29.36-115.55-30.78-219.04-94.28-328.29-30.33-52.19-60.03-92.59-79.97-118.11-1.42,18.63-2.84,37.27-4.26,55.9Z"/>
    <path class="cls-3" d="M1562,904.93c73.12,124.69,106.63,234.87,123.39,308.56,23.2,102.01,42.58,193.16-8.32,259.96-25.5,33.47-74.63,54.89-117.07,60.82-23.29,3.25-45.5-10.85-52.38-33.33-1.21-3.94-2.41-7.88-3.62-11.82-5.55-18.14-21.1-31.83-39.95-33.94-2.9-.33-5.57-1.23-7.76-2.95-10.14-8.01-8.75-33,7.79-62.25,3.8-6.71,5.96-14.22,6.27-21.92,1.37-34.52,3.06-77.93-11.33-129.56-10.02-35.93-25.59-82.65-50.38-135.66"/>
  </g>
  <path class="cls-9" d="M1251,1380.63c-165.76,1.85-331.52,3.7-497.28,5.56-3.05.03-5.51,2.51-5.52,5.55-.39,70.01-.78,140.02-1.17,210.03,0,1.24-.43,2.45-1.2,3.42-16.95,21.54-33.9,43.08-50.85,64.62-2.88,3.66-.27,9.04,4.39,9.04h591.49c4.53,0,7.18-5.12,4.56-8.82-13.79-19.44-27.57-38.88-41.36-58.32-.69-.97-1.05-2.13-1.03-3.32,1.21-74.03,2.41-148.06,3.62-222.08.05-3.14-2.5-5.71-5.65-5.68Z"/>
  <path class="cls-6" d="M1203.21,1436.23c-.48,84.52-.96,169.05-1.44,253.57,31.7-1.33,63.39-2.65,95.09-3.98-13.2-13.19-47.88-51.39-53.73-108.97-4.98-49.03,13.55-86.44,22.81-102.42-20.91-12.73-41.82-25.47-62.72-38.2Z"/>
  <path class="cls-3" d="M747.02,1330.02v262c0,7.46-2.96,14.62-8.24,19.9l-31.94,31.94c-17.73,17.73-5.17,48.04,19.9,48.04h540.01c25.07,0,37.63-30.31,19.9-48.04l-25.4-25.4c-5.28-5.28-8.24-12.44-8.24-19.9v-268.54c0-15.54-12.6-28.14-28.14-28.14h-449.69c-15.54,0-28.14,12.6-28.14,28.14Z"/>
  <line class="cls-3" x1="996.74" y1="1484.47" x2="996.74" y2="1691.91"/>
  <path class="cls-4" d="M1006.26,308.1c-39.51-.62-74.85,19.76-89.78,51.56-21.89,46.61,6.15,104.82,51.09,124.38,44.42,19.32,103.4.04,118.96-37.89,8.32-20.28,8.23-55.66-15.21-68.33-19.26-10.41-48.94-2.59-66.27,22.42"/>
  <ellipse class="cls-9" cx="1000.23" cy="1014.91" rx="571.26" ry="517.97"/>
  <path class="cls-3" d="M945.57,929.95c1.26,1.6,26.3,32.26,71.08,30.85,40.92-1.29,62.86-28.25,64.9-30.85"/>
  <path class="cls-6" d="M1543.41,884.52c9.51,31.8,42.45,153.75-2.28,289.8-88.56,269.41-397.65,338.7-413.52,342,260.18-68.98,425.52-318.84,391.5-567-37.67-274.76-310.59-480.78-606.6-433.47,45.72-6.94,253.87-33.49,439.2,104.07,39.06,29,145.84,111.28,191.7,264.6Z"/>
  <ellipse class="cls-3" cx="1000.23" cy="1014.91" rx="571.26" ry="517.97"/>
  <g>
    <circle class="cls-5" cx="1364.33" cy="1014.91" r="101.91"/>
    <circle class="cls-5" cx="625.91" cy="1014.91" r="101.91"/>
  </g>
  <path class="cls-2" d="M1222.11,672.57c-8.78-5.48-24.46-13.73-45.76-17.09-21.74-3.42-39.51-.21-49.59,2.4"/>
  <path class="cls-2" d="M720.24,768.75c8.31-6.17,23.27-15.66,44.24-20.71,21.39-5.16,39.37-3.38,49.62-1.6"/>
  <path class="cls-11" d="M1403.17,440.08l37.49-14.06c1.19-.45,2.17-1.33,2.72-2.47,8.21-16.77,16.43-33.54,24.64-50.31,1.81-3.7,7.09-3.73,8.93-.04l25.77,51.54c.59,1.17,1.61,2.06,2.85,2.49,12.49,4.26,24.97,8.53,37.46,12.79,4.25,1.45,4.56,7.35.48,9.23-12.78,5.92-25.56,11.84-38.34,17.77-1,.46-1.81,1.24-2.32,2.22-8.28,15.87-16.56,31.73-24.83,47.6-1.84,3.53-6.88,3.58-8.79.08-8.24-15.11-16.49-30.23-24.73-45.34-.48-.88-1.21-1.59-2.1-2.05-13.25-6.79-26.5-13.57-39.74-20.36-3.85-1.97-3.53-7.58.52-9.1Z"/>
  <path class="cls-11" d="M1523.25,589.61l31.71-11.89c1.01-.38,1.83-1.13,2.3-2.09,6.95-14.18,13.89-28.37,20.84-42.55,1.53-3.13,5.99-3.15,7.55-.03l21.8,43.6c.5.99,1.36,1.75,2.41,2.1,10.56,3.61,21.12,7.21,31.68,10.82,3.6,1.23,3.86,6.21.41,7.81-10.81,5.01-21.62,10.02-32.43,15.03-.84.39-1.53,1.05-1.96,1.87-7,13.42-14,26.84-21.01,40.26-1.56,2.99-5.82,3.03-7.44.07-6.97-12.78-13.95-25.57-20.92-38.35-.41-.74-1.02-1.35-1.78-1.73-11.21-5.74-22.41-11.48-33.62-17.22-3.26-1.67-2.99-6.41.44-7.7Z"/>
  <g>
    <g class="cls-12">
      <g>
        <circle class="cls-10" cx="1241.62" cy="907.01" r="121.33"/>
        <circle class="cls-8" cx="1241.62" cy="907.01" r="89.28"/>
      </g>
    </g>
    <g class="cls-7">
      <g>
        <circle class="cls-10" cx="759.18" cy="907.01" r="121.33"/>
        <circle class="cls-8" cx="759.18" cy="907.01" r="89.28"/>
      </g>
    </g>
  </g>
  <circle class="cls-10" cx="1295.45" cy="972.79" r="19.58"/>
  <circle class="cls-10" cx="809.8" cy="972.79" r="19.58"/>
</svg>